# xmcd
#
# Track frame offsets:
# 150
# 10435
# 20615
# 30769
# 40864
# 50991
# 61257
# 71529
# 81697
# 91832
# 102121
# 112293
# 122367
#
# Disc length: 1766 seconds
#
#
# Revision: 0
# Processed by: cddbd v1.5PL3 Copyright (c) Steve Scherf et al.
# Submitted via: FreeRIP 2.53 
#
DISCID=aa06e40d
DTITLE=Loveless, Patty - Bluegrass and White Snow
DYEAR=1900
DGENRE=
TTITLE0=Away In The Manger
TTITLE1=Silent Night
TTITLE2=Joy To The World
TTITLE3=Carol Of The Bells
TTITLE4=The First Noel
TTITLE5=Little Drummer Boy
TTITLE6=Silver Bells
TTITLE7=O Little Town Of Bethlehem
TTITLE8=Christmas Time's A Comin'
TTITLE9=Santa's Train
TTITLE10=Christmas Day At My House
TTITLE11=Beautiful Star Of Bethlehem
TTITLE12=Bluegrass and White Snow
EXTD=
EXTT0=
EXTT1=
EXTT2=
EXTT3=
EXTT4=
EXTT5=
EXTT6=
EXTT7=
EXTT8=
EXTT9=
EXTT10=
EXTT11=
EXTT12=
PLAYORDER=
